<?xml version="1.0" encoding="UTF-8" standalone="no"?>
<svg
   xmlns:dc="http://purl.org/dc/elements/1.1/"
   xmlns:cc="http://creativecommons.org/ns#"
   xmlns:rdf="http://www.w3.org/1999/02/22-rdf-syntax-ns#"
   xmlns:svg="http://www.w3.org/2000/svg"
   xmlns="http://www.w3.org/2000/svg"
   xmlns:sodipodi="http://sodipodi.sourceforge.net/DTD/sodipodi-0.dtd"
   xmlns:inkscape="http://www.inkscape.org/namespaces/inkscape"
   sodipodi:docname="full_bird.svg"
   inkscape:version="1.0 (4035a4fb49, 2020-05-01)"
   id="svg8"
   version="1.1"
   viewBox="0 0 1339.4612 1065.4224"
   height="1065.4224mm"
   width="1339.4612mm">
  <defs
     id="defs2">
    <inkscape:path-effect
       only_selected="false"
       apply_with_weight="true"
       apply_no_weight="true"
       helper_size="0"
       steps="2"
       weight="33.333333"
       is_visible="true"
       id="path-effect6215"
       effect="bspline" />
    <inkscape:path-effect
       is_visible="true"
       id="path-effect6211"
       effect="spiro" />
    <inkscape:path-effect
       is_visible="true"
       id="path-effect5536"
       effect="spiro" />
    <inkscape:path-effect
       is_visible="true"
       id="path-effect5528"
       effect="spiro" />
    <inkscape:perspective
       id="perspective5502"
       inkscape:persp3d-origin="148.5 : 70.000003 : 1"
       inkscape:vp_z="297.00001 : 105 : 1"
       inkscape:vp_y="0 : 1000.0001 : 0"
       inkscape:vp_x="0 : 105.00001 : 1"
       sodipodi:type="inkscape:persp3d" />
    <inkscape:path-effect
       is_visible="true"
       id="path-effect5330"
       effect="spiro" />
    <inkscape:path-effect
       is_visible="true"
       id="path-effect5326"
       effect="spiro" />
    <inkscape:path-effect
       is_visible="true"
       id="path-effect5322"
       effect="spiro" />
    <inkscape:path-effect
       is_visible="true"
       id="path-effect5318"
       effect="spiro" />
    <inkscape:path-effect
       is_visible="true"
       id="path-effect5314"
       effect="spiro" />
    <inkscape:path-effect
       is_visible="true"
       id="path-effect5310"
       effect="spiro" />
    <inkscape:path-effect
       is_visible="true"
       id="path-effect5306"
       effect="spiro" />
    <inkscape:path-effect
       is_visible="true"
       id="path-effect5294"
       effect="spiro" />
    <inkscape:path-effect
       only_selected="false"
       apply_with_weight="true"
       apply_no_weight="true"
       helper_size="0"
       steps="2"
       weight="33.333333"
       is_visible="true"
       id="path-effect5290"
       effect="bspline" />
    <inkscape:path-effect
       only_selected="false"
       apply_with_weight="true"
       apply_no_weight="true"
       helper_size="0"
       steps="2"
       weight="33.333333"
       is_visible="true"
       id="path-effect5278"
       effect="bspline" />
    <marker
       inkscape:isstock="true"
       style="overflow:visible"
       id="marker1137"
       refX="0"
       refY="0"
       orient="auto"
       inkscape:stockid="Arrow1Lend">
      <path
         inkscape:connector-curvature="0"
         transform="matrix(-0.8,0,0,-0.8,-10,0)"
         style="fill:#000000;fill-opacity:1;fill-rule:evenodd;stroke:#000000;stroke-width:1.00000003pt;stroke-opacity:1"
         d="M 0,0 5,-5 -12.5,0 5,5 Z"
         id="path1135" />
    </marker>
    <marker
       inkscape:isstock="true"
       style="overflow:visible"
       id="Arrow1Lend"
       refX="0"
       refY="0"
       orient="auto"
       inkscape:stockid="Arrow1Lend">
      <path
         inkscape:connector-curvature="0"
         transform="matrix(-0.8,0,0,-0.8,-10,0)"
         style="fill:#000000;fill-opacity:1;fill-rule:evenodd;stroke:#000000;stroke-width:1.00000003pt;stroke-opacity:1"
         d="M 0,0 5,-5 -12.5,0 5,5 Z"
         id="path836" />
    </marker>
    <inkscape:path-effect
       only_selected="false"
       apply_with_weight="true"
       apply_no_weight="true"
       helper_size="0"
       steps="2"
       weight="33.333333"
       is_visible="true"
       id="path-effect26"
       effect="bspline" />
    <inkscape:path-effect
       only_selected="false"
       apply_with_weight="true"
       apply_no_weight="true"
       helper_size="0"
       steps="2"
       weight="33.333333"
       is_visible="true"
       id="path-effect20"
       effect="bspline" />
    <marker
       inkscape:isstock="true"
       style="overflow:visible"
       id="marker1137-8"
       refX="0"
       refY="0"
       orient="auto"
       inkscape:stockid="Arrow1Lend">
      <path
         transform="matrix(-0.8,0,0,-0.8,-10,0)"
         style="fill:#000000;fill-opacity:1;fill-rule:evenodd;stroke:#000000;stroke-width:1.00000003pt;stroke-opacity:1"
         d="M 0,0 5,-5 -12.5,0 5,5 Z"
         id="path1135-0"
         inkscape:connector-curvature="0" />
    </marker>
    <inkscape:path-effect
       only_selected="false"
       apply_with_weight="true"
       apply_no_weight="true"
       helper_size="0"
       steps="2"
       weight="33.333333"
       is_visible="true"
       id="path-effect26-2"
       effect="bspline" />
    <marker
       inkscape:isstock="true"
       style="overflow:visible"
       id="Arrow1Lend-8"
       refX="0"
       refY="0"
       orient="auto"
       inkscape:stockid="Arrow1Lend">
      <path
         transform="matrix(-0.8,0,0,-0.8,-10,0)"
         style="fill:#000000;fill-opacity:1;fill-rule:evenodd;stroke:#000000;stroke-width:1.00000003pt;stroke-opacity:1"
         d="M 0,0 5,-5 -12.5,0 5,5 Z"
         id="path836-5"
         inkscape:connector-curvature="0" />
    </marker>
    <inkscape:path-effect
       only_selected="false"
       apply_with_weight="true"
       apply_no_weight="true"
       helper_size="0"
       steps="2"
       weight="33.333333"
       is_visible="true"
       id="path-effect20-0"
       effect="bspline" />
    <inkscape:path-effect
       is_visible="true"
       id="path-effect5326-7"
       effect="spiro" />
    <inkscape:path-effect
       is_visible="true"
       id="path-effect5326-78"
       effect="spiro" />
    <inkscape:path-effect
       is_visible="true"
       id="path-effect5326-7-8"
       effect="spiro" />
    <marker
       inkscape:isstock="true"
       style="overflow:visible"
       id="marker1137-3"
       refX="0"
       refY="0"
       orient="auto"
       inkscape:stockid="Arrow1Lend">
      <path
         transform="matrix(-0.8,0,0,-0.8,-10,0)"
         style="fill:#000000;fill-opacity:1;fill-rule:evenodd;stroke:#000000;stroke-width:1.00000003pt;stroke-opacity:1"
         d="M 0,0 5,-5 -12.5,0 5,5 Z"
         id="path1135-7"
         inkscape:connector-curvature="0" />
    </marker>
    <inkscape:path-effect
       only_selected="false"
       apply_with_weight="true"
       apply_no_weight="true"
       helper_size="0"
       steps="2"
       weight="33.333333"
       is_visible="true"
       id="path-effect26-6"
       effect="bspline" />
    <marker
       inkscape:isstock="true"
       style="overflow:visible"
       id="Arrow1Lend-5"
       refX="0"
       refY="0"
       orient="auto"
       inkscape:stockid="Arrow1Lend">
      <path
         transform="matrix(-0.8,0,0,-0.8,-10,0)"
         style="fill:#000000;fill-opacity:1;fill-rule:evenodd;stroke:#000000;stroke-width:1.00000003pt;stroke-opacity:1"
         d="M 0,0 5,-5 -12.5,0 5,5 Z"
         id="path836-1"
         inkscape:connector-curvature="0" />
    </marker>
    <inkscape:path-effect
       only_selected="false"
       apply_with_weight="true"
       apply_no_weight="true"
       helper_size="0"
       steps="2"
       weight="33.333333"
       is_visible="true"
       id="path-effect20-4"
       effect="bspline" />
    <inkscape:path-effect
       is_visible="true"
       id="path-effect5528-0"
       effect="spiro" />
    <inkscape:path-effect
       is_visible="true"
       id="path-effect5536-6"
       effect="spiro" />
    <inkscape:path-effect
       is_visible="true"
       id="path-effect5528-0-9"
       effect="spiro" />
    <inkscape:path-effect
       is_visible="true"
       id="path-effect5536-6-4"
       effect="spiro" />
    <inkscape:path-effect
       is_visible="true"
       id="path-effect5528-0-9-4"
       effect="spiro" />
    <inkscape:path-effect
       is_visible="true"
       id="path-effect5536-6-4-7"
       effect="spiro" />
    <marker
       inkscape:isstock="true"
       style="overflow:visible"
       id="marker1137-3-7"
       refX="0"
       refY="0"
       orient="auto"
       inkscape:stockid="Arrow1Lend">
      <path
         transform="matrix(-0.8,0,0,-0.8,-10,0)"
         style="fill:#000000;fill-opacity:1;fill-rule:evenodd;stroke:#000000;stroke-width:1.00000003pt;stroke-opacity:1"
         d="M 0,0 5,-5 -12.5,0 5,5 Z"
         id="path1135-7-1"
         inkscape:connector-curvature="0" />
    </marker>
    <inkscape:path-effect
       only_selected="false"
       apply_with_weight="true"
       apply_no_weight="true"
       helper_size="0"
       steps="2"
       weight="33.333333"
       is_visible="true"
       id="path-effect26-6-3"
       effect="bspline" />
    <marker
       inkscape:isstock="true"
       style="overflow:visible"
       id="Arrow1Lend-5-6"
       refX="0"
       refY="0"
       orient="auto"
       inkscape:stockid="Arrow1Lend">
      <path
         transform="matrix(-0.8,0,0,-0.8,-10,0)"
         style="fill:#000000;fill-opacity:1;fill-rule:evenodd;stroke:#000000;stroke-width:1.00000003pt;stroke-opacity:1"
         d="M 0,0 5,-5 -12.5,0 5,5 Z"
         id="path836-1-0"
         inkscape:connector-curvature="0" />
    </marker>
    <inkscape:path-effect
       only_selected="false"
       apply_with_weight="true"
       apply_no_weight="true"
       helper_size="0"
       steps="2"
       weight="33.333333"
       is_visible="true"
       id="path-effect20-4-5"
       effect="bspline" />
    <clipPath
       id="clipPath2025"
       clipPathUnits="userSpaceOnUse">
      <rect
         y="34.084568"
         x="29.687981"
         height="47.926296"
         width="54.291504"
         id="rect2027"
         style="fill:none;fill-opacity:1;stroke:#008000;stroke-width:0.26250967;stroke-miterlimit:4;stroke-dasharray:none" />
    </clipPath>
    <clipPath
       id="clipPath6123"
       clipPathUnits="userSpaceOnUse">
      <rect
         y="247.21768"
         x="318.36215"
         height="19.950571"
         width="24.185362"
         id="rect6125"
         style="fill:none;fill-rule:evenodd;stroke-width:0.26458332" />
    </clipPath>
    <clipPath
       id="clipPath6144"
       clipPathUnits="userSpaceOnUse">
      <rect
         y="309.89261"
         x="393.2709"
         height="10.963404"
         width="12.139733"
         id="rect6146"
         style="fill:none;fill-rule:evenodd;stroke-width:0.26458332" />
    </clipPath>
    <clipPath
       id="clipPath6154"
       clipPathUnits="userSpaceOnUse">
      <path
         transform="translate(3.1812735,-57.504619)"
         clip-path="url(#clipPath6144)"
         sodipodi:nodetypes="cccccccccccccccccccccccc"
         inkscape:connector-curvature="0"
         id="path6156"
         d="m 341.38022,292.71347 c -2.48866,5.76725 -0.94333,10.44422 3.12554,14.43916 4.09194,5.96927 8.09089,12.02288 19.6212,11.24571 3.81131,0.45473 7.62262,0.47961 11.43393,0.0471 3.51717,1.02721 6.55671,1.09914 8.6578,-0.7058 2.43177,0.18026 5.63719,0.23156 9.12832,0.23527 l 7.71674,1.92918 -1.27044,-1.03518 1.88213,0.0471 -2.02329,-1.36455 1.27043,0.14115 -1.27043,-1.27043 1.88213,-0.56464 c -2.75056,-1.35926 -5.67584,-1.86019 -8.51664,-2.77614 -8.53771,-3.94839 -14.82173,-9.74734 -21.8327,-13.88079 -7.83239,-3.31518 -14.8391,-4.89206 -20.98574,-4.65828 0.54743,-1.74823 0.83187,-3.84711 0.84696,-6.30513 -1.72571,-6.32498 -7.35966,-5.06046 -7.96578,-4.87808 -0.95203,0.15508 -3.65409,1.58047 -4.03279,3.7488 -7.70201,2.24594 -15.46933,4.43598 -18.77424,10.44583 l -0.23527,0.94107 c 0.84063,-0.1553 3.46008,-3.42303 8.02025,-5.6766 3.13792,-1.55072 7.68528,-2.23586 11.22452,-2.65184 1.10755,0.61564 2.20335,1.23799 2.09737,2.54707 z"
         style="fill:#ff00ff;stroke:none;stroke-width:0.26458332px;stroke-linecap:butt;stroke-linejoin:miter;stroke-opacity:1" />
    </clipPath>
    <clipPath
       id="clipPath6162"
       clipPathUnits="userSpaceOnUse">
      <rect
         y="240.97052"
         x="410.83841"
         height="10.646931"
         width="11.977798"
         id="rect6164"
         style="fill:#ffffff;fill-rule:evenodd;stroke:#e6e6e6;stroke-width:0.26458332" />
    </clipPath>
    <clipPath
       id="clipPath6189"
       clipPathUnits="userSpaceOnUse">
      <path
         transform="matrix(1.1276265,0,0,1,-39.194444,-10.61878)"
         clip-path="url(#clipPath6162)"
         sodipodi:nodetypes="cccccccccccccccccccccccccc"
         inkscape:connector-curvature="0"
         id="path6191"
         d="m 354.49042,224.78454 c -2.48866,5.76724 -0.94333,10.44421 3.12554,14.43915 4.09194,5.96927 8.09089,12.02288 19.6212,11.24572 3.81131,0.45472 7.62262,0.47961 11.43393,0.0471 3.51717,1.02721 6.55671,1.09914 8.6578,-0.7058 2.43177,0.18026 5.0255,-0.56833 8.51663,-0.56463 5.1562,-1.20794 5.5457,-1.38098 7.49937,-1.234 l 2.01697,-0.89784 3.23667,-1.26451 1.43979,-0.0347 -0.52182,-0.65088 1.52115,-0.90335 -3.61559,0.20621 -2.25478,0.57861 c -4.70289,1.75602 -7.51853,0.53269 -9.03944,0.10687 -8.53771,-3.94839 -14.82173,-9.74734 -21.8327,-13.88079 -7.83239,-3.31517 -14.8391,-4.89205 -20.98574,-4.65827 0.54743,-1.74823 0.83187,-3.84711 0.84696,-6.30513 -1.72571,-6.32498 -7.35966,-5.06046 -7.96578,-4.87808 -0.95203,0.15508 -3.65409,1.58047 -4.03279,3.7488 -7.70201,2.24594 -15.46933,4.43598 -18.77424,10.44582 l -0.23527,0.94107 c 0.84063,-0.1553 3.46008,-3.42302 8.02025,-5.67659 3.13792,-1.55072 7.68528,-2.23586 11.22452,-2.65184 1.10755,0.61564 2.20335,1.23799 2.09737,2.54707 z"
         style="fill:#000000;stroke:#000000;stroke-width:0.26458332px;stroke-linecap:butt;stroke-linejoin:miter;stroke-opacity:1" />
    </clipPath>
    <clipPath
       id="clipPath6195"
       clipPathUnits="userSpaceOnUse">
      <path
         transform="translate(2.6201381,29.649277)"
         clip-path="url(#clipPath6123)"
         sodipodi:nodetypes="cccccccccccccccccccccccc"
         inkscape:connector-curvature="0"
         id="path6197"
         d="m 345.21595,258.21835 c -2.48866,5.76724 -0.94333,10.44421 3.12554,14.43915 4.09194,5.96927 8.09089,12.02288 19.6212,11.24571 3.81131,0.45473 7.62262,0.47961 11.43393,0.0471 3.51717,1.02721 6.55671,1.09914 8.6578,-0.7058 2.43177,0.18026 5.63719,0.23156 9.12832,0.23527 l 7.71674,1.92918 -1.27044,-1.03518 1.88213,0.0471 -2.02329,-1.36455 1.27043,0.14115 -1.27043,-1.27043 1.88213,-0.56464 c -2.75056,-1.35926 -5.67584,-1.86019 -8.51664,-2.77614 -8.53771,-3.94839 -14.82173,-9.74734 -21.8327,-13.88079 -7.83239,-3.31517 -14.8391,-4.89205 -20.98574,-4.65827 0.54743,-1.74823 0.83187,-3.84711 0.84696,-6.30513 -1.72571,-6.32498 -7.35966,-5.06046 -7.96578,-4.87808 -0.95203,0.15508 -3.65409,1.58047 -4.03279,3.7488 -7.70201,2.24594 -15.46933,4.43598 -18.77424,10.44582 l -0.23527,0.94107 c 0.84063,-0.1553 3.46008,-3.42302 8.02025,-5.67659 3.13792,-1.55072 7.68528,-2.23586 11.22452,-2.65184 1.10755,0.61564 2.20335,1.23799 2.09737,2.54707 z"
         style="fill:#008000;stroke:none;stroke-width:0.26458332px;stroke-linecap:butt;stroke-linejoin:miter;stroke-opacity:1" />
    </clipPath>
    <clipPath
       id="clipPath6201"
       clipPathUnits="userSpaceOnUse">
      <rect
         transform="translate(-22.502526,-39.55645)"
         clip-path="url(#clipPath6195)"
         y="276.77081"
         x="319.40793"
         height="22.624729"
         width="33.804005"
         id="rect6203"
         style="fill:#0000ff;fill-rule:evenodd;stroke-width:0.26458332" />
    </clipPath>
    <clipPath
       id="clipPath6277"
       clipPathUnits="userSpaceOnUse">
      <path
         sodipodi:nodetypes="cccccccccccccccccccccccccc"
         inkscape:connector-curvature="0"
         id="path6279"
         d="m 354.49042,224.78454 c -2.48865,5.76724 -0.94332,10.44421 3.12555,14.43915 4.09194,5.96927 8.09088,12.02288 19.62118,11.24572 3.81132,0.45472 7.62262,0.47961 11.43394,0.0471 3.51716,1.02721 6.55672,1.09914 8.6578,-0.7058 2.43176,0.18026 5.0255,-0.56833 8.51662,-0.56463 5.1562,-1.20794 5.54572,-1.38098 7.49938,-1.234 l 2.01697,-0.89784 3.23668,-1.26451 1.43978,-0.0347 -0.52181,-0.65088 1.52114,-0.90335 -3.61558,0.20621 -2.25478,0.57861 c -4.70289,1.75602 -7.51854,0.53269 -9.03944,0.10687 -8.53771,-3.94839 -14.82175,-9.74734 -21.8327,-13.88079 -7.83241,-3.31517 -14.83911,-4.89205 -20.98575,-4.65827 0.54743,-1.74823 0.83188,-3.84711 0.84696,-6.30513 -1.72572,-6.32498 -7.35965,-5.06046 -7.96578,-4.87808 -0.95203,0.15508 -3.65408,1.58047 -4.03278,3.7488 -7.70202,2.24594 -15.46934,4.43598 -18.77425,10.44582 l -0.23527,0.94107 c 0.84063,-0.1553 3.46009,-3.42302 8.02026,-5.67659 3.13791,-1.55072 7.68527,-2.23586 11.2245,-2.65184 1.10757,0.61564 2.20337,1.23799 2.09738,2.54707 z"
         style="fill:#000000;stroke:#000000;stroke-width:0.26458332px;stroke-linecap:butt;stroke-linejoin:miter;stroke-opacity:1" />
    </clipPath>
    <clipPath
       id="clipPath6396"
       clipPathUnits="userSpaceOnUse">
      <rect
         clip-path="url(#clipPath6277)"
         y="212.59792"
         x="351.88672"
         height="43.114731"
         width="69.870689"
         id="rect6398"
         style="fill:#000000;fill-rule:evenodd;stroke-width:0.54091132" />
    </clipPath>
    <clipPath
       id="clipPath6189-7"
       clipPathUnits="userSpaceOnUse">
      <path
         transform="matrix(1.1276265,0,0,1,-39.194444,-10.61878)"
         clip-path="url(#clipPath6162)"
         sodipodi:nodetypes="cccccccccccccccccccccccccc"
         inkscape:connector-curvature="0"
         id="path6191-8"
         d="m 354.49042,224.78454 c -2.48866,5.76724 -0.94333,10.44421 3.12554,14.43915 4.09194,5.96927 8.09089,12.02288 19.6212,11.24572 3.81131,0.45472 7.62262,0.47961 11.43393,0.0471 3.51717,1.02721 6.55671,1.09914 8.6578,-0.7058 2.43177,0.18026 5.0255,-0.56833 8.51663,-0.56463 5.1562,-1.20794 5.5457,-1.38098 7.49937,-1.234 l 2.01697,-0.89784 3.23667,-1.26451 1.43979,-0.0347 -0.52182,-0.65088 1.52115,-0.90335 -3.61559,0.20621 -2.25478,0.57861 c -4.70289,1.75602 -7.51853,0.53269 -9.03944,0.10687 -8.53771,-3.94839 -14.82173,-9.74734 -21.8327,-13.88079 -7.83239,-3.31517 -14.8391,-4.89205 -20.98574,-4.65827 0.54743,-1.74823 0.83187,-3.84711 0.84696,-6.30513 -1.72571,-6.32498 -7.35966,-5.06046 -7.96578,-4.87808 -0.95203,0.15508 -3.65409,1.58047 -4.03279,3.7488 -7.70201,2.24594 -15.46933,4.43598 -18.77424,10.44582 l -0.23527,0.94107 c 0.84063,-0.1553 3.46008,-3.42302 8.02025,-5.67659 3.13792,-1.55072 7.68528,-2.23586 11.22452,-2.65184 1.10755,0.61564 2.20335,1.23799 2.09737,2.54707 z"
         style="fill:#000000;stroke:#000000;stroke-width:0.26458332px;stroke-linecap:butt;stroke-linejoin:miter;stroke-opacity:1" />
    </clipPath>
    <clipPath
       id="clipPath6201-8"
       clipPathUnits="userSpaceOnUse">
      <rect
         transform="translate(-22.502526,-39.55645)"
         clip-path="url(#clipPath6195)"
         y="276.77081"
         x="319.40793"
         height="22.624729"
         width="33.804005"
         id="rect6203-2"
         style="fill:#0000ff;fill-rule:evenodd;stroke-width:0.26458332" />
    </clipPath>
    <clipPath
       id="clipPath6396-3"
       clipPathUnits="userSpaceOnUse">
      <rect
         clip-path="url(#clipPath6277)"
         y="212.59792"
         x="351.88672"
         height="43.114731"
         width="69.870689"
         id="rect6398-5"
         style="fill:#000000;fill-rule:evenodd;stroke-width:0.54091132" />
    </clipPath>
    <clipPath
       id="clipPath6189-7-5"
       clipPathUnits="userSpaceOnUse">
      <path
         transform="matrix(1.1276265,0,0,1,-39.194444,-10.61878)"
         clip-path="url(#clipPath6162)"
         sodipodi:nodetypes="cccccccccccccccccccccccccc"
         inkscape:connector-curvature="0"
         id="path6191-8-4"
         d="m 354.49042,224.78454 c -2.48866,5.76724 -0.94333,10.44421 3.12554,14.43915 4.09194,5.96927 8.09089,12.02288 19.6212,11.24572 3.81131,0.45472 7.62262,0.47961 11.43393,0.0471 3.51717,1.02721 6.55671,1.09914 8.6578,-0.7058 2.43177,0.18026 5.0255,-0.56833 8.51663,-0.56463 5.1562,-1.20794 5.5457,-1.38098 7.49937,-1.234 l 2.01697,-0.89784 3.23667,-1.26451 1.43979,-0.0347 -0.52182,-0.65088 1.52115,-0.90335 -3.61559,0.20621 -2.25478,0.57861 c -4.70289,1.75602 -7.51853,0.53269 -9.03944,0.10687 -8.53771,-3.94839 -14.82173,-9.74734 -21.8327,-13.88079 -7.83239,-3.31517 -14.8391,-4.89205 -20.98574,-4.65827 0.54743,-1.74823 0.83187,-3.84711 0.84696,-6.30513 -1.72571,-6.32498 -7.35966,-5.06046 -7.96578,-4.87808 -0.95203,0.15508 -3.65409,1.58047 -4.03279,3.7488 -7.70201,2.24594 -15.46933,4.43598 -18.77424,10.44582 l -0.23527,0.94107 c 0.84063,-0.1553 3.46008,-3.42302 8.02025,-5.67659 3.13792,-1.55072 7.68528,-2.23586 11.22452,-2.65184 1.10755,0.61564 2.20335,1.23799 2.09737,2.54707 z"
         style="fill:#000000;stroke:#000000;stroke-width:0.26458332px;stroke-linecap:butt;stroke-linejoin:miter;stroke-opacity:1" />
    </clipPath>
    <clipPath
       id="clipPath6201-8-5"
       clipPathUnits="userSpaceOnUse">
      <rect
         transform="translate(-22.502526,-39.55645)"
         clip-path="url(#clipPath6195)"
         y="276.77081"
         x="319.40793"
         height="22.624729"
         width="33.804005"
         id="rect6203-2-1"
         style="fill:#0000ff;fill-rule:evenodd;stroke-width:0.26458332" />
    </clipPath>
    <clipPath
       id="clipPath6396-3-1"
       clipPathUnits="userSpaceOnUse">
      <rect
         clip-path="url(#clipPath6277)"
         y="212.59792"
         x="351.88672"
         height="43.114731"
         width="69.870689"
         id="rect6398-5-2"
         style="fill:#000000;fill-rule:evenodd;stroke-width:0.54091132" />
    </clipPath>
    <clipPath
       id="clipPath6189-9"
       clipPathUnits="userSpaceOnUse">
      <path
         transform="matrix(1.1276265,0,0,1,-39.194444,-10.61878)"
         clip-path="url(#clipPath6162)"
         sodipodi:nodetypes="cccccccccccccccccccccccccc"
         inkscape:connector-curvature="0"
         id="path6191-2"
         d="m 354.49042,224.78454 c -2.48866,5.76724 -0.94333,10.44421 3.12554,14.43915 4.09194,5.96927 8.09089,12.02288 19.6212,11.24572 3.81131,0.45472 7.62262,0.47961 11.43393,0.0471 3.51717,1.02721 6.55671,1.09914 8.6578,-0.7058 2.43177,0.18026 5.0255,-0.56833 8.51663,-0.56463 5.1562,-1.20794 5.5457,-1.38098 7.49937,-1.234 l 2.01697,-0.89784 3.23667,-1.26451 1.43979,-0.0347 -0.52182,-0.65088 1.52115,-0.90335 -3.61559,0.20621 -2.25478,0.57861 c -4.70289,1.75602 -7.51853,0.53269 -9.03944,0.10687 -8.53771,-3.94839 -14.82173,-9.74734 -21.8327,-13.88079 -7.83239,-3.31517 -14.8391,-4.89205 -20.98574,-4.65827 0.54743,-1.74823 0.83187,-3.84711 0.84696,-6.30513 -1.72571,-6.32498 -7.35966,-5.06046 -7.96578,-4.87808 -0.95203,0.15508 -3.65409,1.58047 -4.03279,3.7488 -7.70201,2.24594 -15.46933,4.43598 -18.77424,10.44582 l -0.23527,0.94107 c 0.84063,-0.1553 3.46008,-3.42302 8.02025,-5.67659 3.13792,-1.55072 7.68528,-2.23586 11.22452,-2.65184 1.10755,0.61564 2.20335,1.23799 2.09737,2.54707 z"
         style="fill:#000000;stroke:#000000;stroke-width:0.26458332px;stroke-linecap:butt;stroke-linejoin:miter;stroke-opacity:1" />
    </clipPath>
    <clipPath
       id="clipPath6201-6"
       clipPathUnits="userSpaceOnUse">
      <rect
         transform="translate(-22.502526,-39.55645)"
         clip-path="url(#clipPath6195)"
         y="276.77081"
         x="319.40793"
         height="22.624729"
         width="33.804005"
         id="rect6203-21"
         style="fill:#0000ff;fill-rule:evenodd;stroke-width:0.26458332" />
    </clipPath>
    <clipPath
       id="clipPath6396-34"
       clipPathUnits="userSpaceOnUse">
      <rect
         clip-path="url(#clipPath6277)"
         y="212.59792"
         x="351.88672"
         height="43.114731"
         width="69.870689"
         id="rect6398-0"
         style="fill:#000000;fill-rule:evenodd;stroke-width:0.54091132" />
    </clipPath>
    <clipPath
       id="clipPath8564"
       clipPathUnits="userSpaceOnUse">
      <g
         transform="translate(-68.542268,-6.4467693)"
         id="g8572">
        <ellipse
           style="opacity:1;vector-effect:none;fill:#000000;fill-opacity:1;fill-rule:evenodd;stroke:#000000;stroke-width:0.06330302;stroke-linecap:butt;stroke-linejoin:miter;stroke-miterlimit:4;stroke-dasharray:none;stroke-dashoffset:0;stroke-opacity:1"
           id="ellipse8566"
           cx="43.093925"
           cy="166.21701"
           rx="5.2386699"
           ry="4.9683485" />
        <ellipse
           style="opacity:1;vector-effect:none;fill:#000000;fill-opacity:1;fill-rule:evenodd;stroke:#000000;stroke-width:0.06330302;stroke-linecap:butt;stroke-linejoin:miter;stroke-miterlimit:4;stroke-dasharray:none;stroke-dashoffset:0;stroke-opacity:1"
           id="ellipse8568"
           cx="81.724419"
           cy="166.21701"
           rx="5.2386699"
           ry="4.9683485" />
        <rect
           style="fill:#000000;fill-rule:evenodd;stroke:none;stroke-width:0.26083475"
           id="rect8570"
           width="38.261063"
           height="10"
           x="43.248856"
           y="161.22964" />
      </g>
    </clipPath>
    <clipPath
       id="clipPath6201-2"
       clipPathUnits="userSpaceOnUse">
      <rect
         transform="translate(-22.502526,-39.55645)"
         clip-path="url(#clipPath6195)"
         y="276.77081"
         x="319.40793"
         height="22.624729"
         width="33.804005"
         id="rect6203-3"
         style="fill:#0000ff;fill-rule:evenodd;stroke-width:0.26458332" />
    </clipPath>
    <clipPath
       id="clipPath6189-2"
       clipPathUnits="userSpaceOnUse">
      <path
         transform="matrix(1.1276265,0,0,1,-39.194444,-10.61878)"
         clip-path="url(#clipPath6162)"
         sodipodi:nodetypes="cccccccccccccccccccccccccc"
         inkscape:connector-curvature="0"
         id="path6191-9"
         d="m 354.49042,224.78454 c -2.48866,5.76724 -0.94333,10.44421 3.12554,14.43915 4.09194,5.96927 8.09089,12.02288 19.6212,11.24572 3.81131,0.45472 7.62262,0.47961 11.43393,0.0471 3.51717,1.02721 6.55671,1.09914 8.6578,-0.7058 2.43177,0.18026 5.0255,-0.56833 8.51663,-0.56463 5.1562,-1.20794 5.5457,-1.38098 7.49937,-1.234 l 2.01697,-0.89784 3.23667,-1.26451 1.43979,-0.0347 -0.52182,-0.65088 1.52115,-0.90335 -3.61559,0.20621 -2.25478,0.57861 c -4.70289,1.75602 -7.51853,0.53269 -9.03944,0.10687 -8.53771,-3.94839 -14.82173,-9.74734 -21.8327,-13.88079 -7.83239,-3.31517 -14.8391,-4.89205 -20.98574,-4.65827 0.54743,-1.74823 0.83187,-3.84711 0.84696,-6.30513 -1.72571,-6.32498 -7.35966,-5.06046 -7.96578,-4.87808 -0.95203,0.15508 -3.65409,1.58047 -4.03279,3.7488 -7.70201,2.24594 -15.46933,4.43598 -18.77424,10.44582 l -0.23527,0.94107 c 0.84063,-0.1553 3.46008,-3.42302 8.02025,-5.67659 3.13792,-1.55072 7.68528,-2.23586 11.22452,-2.65184 1.10755,0.61564 2.20335,1.23799 2.09737,2.54707 z"
         style="fill:#000000;stroke:#000000;stroke-width:0.26458332px;stroke-linecap:butt;stroke-linejoin:miter;stroke-opacity:1" />
    </clipPath>
    <clipPath
       id="clipPath6189-7-50"
       clipPathUnits="userSpaceOnUse">
      <path
         transform="matrix(1.1276265,0,0,1,-39.194444,-10.61878)"
         clip-path="url(#clipPath6162)"
         sodipodi:nodetypes="cccccccccccccccccccccccccc"
         inkscape:connector-curvature="0"
         id="path6191-8-1"
         d="m 354.49042,224.78454 c -2.48866,5.76724 -0.94333,10.44421 3.12554,14.43915 4.09194,5.96927 8.09089,12.02288 19.6212,11.24572 3.81131,0.45472 7.62262,0.47961 11.43393,0.0471 3.51717,1.02721 6.55671,1.09914 8.6578,-0.7058 2.43177,0.18026 5.0255,-0.56833 8.51663,-0.56463 5.1562,-1.20794 5.5457,-1.38098 7.49937,-1.234 l 2.01697,-0.89784 3.23667,-1.26451 1.43979,-0.0347 -0.52182,-0.65088 1.52115,-0.90335 -3.61559,0.20621 -2.25478,0.57861 c -4.70289,1.75602 -7.51853,0.53269 -9.03944,0.10687 -8.53771,-3.94839 -14.82173,-9.74734 -21.8327,-13.88079 -7.83239,-3.31517 -14.8391,-4.89205 -20.98574,-4.65827 0.54743,-1.74823 0.83187,-3.84711 0.84696,-6.30513 -1.72571,-6.32498 -7.35966,-5.06046 -7.96578,-4.87808 -0.95203,0.15508 -3.65409,1.58047 -4.03279,3.7488 -7.70201,2.24594 -15.46933,4.43598 -18.77424,10.44582 l -0.23527,0.94107 c 0.84063,-0.1553 3.46008,-3.42302 8.02025,-5.67659 3.13792,-1.55072 7.68528,-2.23586 11.22452,-2.65184 1.10755,0.61564 2.20335,1.23799 2.09737,2.54707 z"
         style="fill:#000000;stroke:#000000;stroke-width:0.26458332px;stroke-linecap:butt;stroke-linejoin:miter;stroke-opacity:1" />
    </clipPath>
    <clipPath
       id="clipPath6201-8-6"
       clipPathUnits="userSpaceOnUse">
      <rect
         transform="translate(-22.502526,-39.55645)"
         clip-path="url(#clipPath6195)"
         y="276.77081"
         x="319.40793"
         height="22.624729"
         width="33.804005"
         id="rect6203-2-5"
         style="fill:#0000ff;fill-rule:evenodd;stroke-width:0.26458332" />
    </clipPath>
    <clipPath
       id="clipPath6396-3-7"
       clipPathUnits="userSpaceOnUse">
      <rect
         clip-path="url(#clipPath6277)"
         y="212.59792"
         x="351.88672"
         height="43.114731"
         width="69.870689"
         id="rect6398-5-0"
         style="fill:#000000;fill-rule:evenodd;stroke-width:0.54091132" />
    </clipPath>
    <clipPath
       id="clipPath371"
       clipPathUnits="userSpaceOnUse">
      <rect
         y="-2945.2981"
         x="-1006.6849"
         height="102.65833"
         width="84.137497"
         id="rect373"
         style="fill:#ff0000;stroke:none;stroke-width:0.264583" />
    </clipPath>
    <clipPath
       id="clipPath385"
       clipPathUnits="userSpaceOnUse">
      <rect
         y="-2945.2981"
         x="-1213.0599"
         height="102.65833"
         width="206.375"
         id="rect387"
         style="fill:#ff0000;stroke:none;stroke-width:0.414377" />
    </clipPath>
    <clipPath
       id="clipPath421"
       clipPathUnits="userSpaceOnUse">
      <path
         id="path423"
         d="m -1025.7922,-2852.8351 43.45311,-67.7261 75.81192,4.8643 c 0,0 7.39628,38.1661 6.00946,40.037 -1.38679,1.8709 -40.21726,33.676 -40.21726,33.676 l -61.94393,0.3742 z"
         style="fill:none;stroke:#000000;stroke-width:0.294083px;stroke-linecap:butt;stroke-linejoin:miter;stroke-opacity:1" />
    </clipPath>
    <clipPath
       id="clipPath429"
       clipPathUnits="userSpaceOnUse">
      <path
         id="path431"
         d="m -1019.5138,-2856.192 10.6083,-16.6687 16.59259,-32.2792 -221.14359,10.0542 -11.4244,68.7916 z"
         style="fill:none;stroke:#000000;stroke-width:0.26827px;stroke-linecap:butt;stroke-linejoin:miter;stroke-opacity:1" />
    </clipPath>
  </defs>
  <sodipodi:namedview
     showborder="false"
     inkscape:document-rotation="0"
     inkscape:guide-bbox="true"
     showguides="false"
     fit-margin-bottom="110"
     fit-margin-right="110"
     fit-margin-left="110"
     fit-margin-top="110"
     inkscape:snap-global="true"
     inkscape:window-maximized="1"
     inkscape:window-y="-11"
     inkscape:window-x="-11"
     inkscape:window-height="986"
     inkscape:window-width="1920"
     showgrid="false"
     inkscape:current-layer="layer1"
     inkscape:document-units="mm"
     inkscape:cy="1023.7347"
     inkscape:cx="8444.2417"
     inkscape:zoom="0.11525648"
     inkscape:pageshadow="2"
     inkscape:pageopacity="0.0"
     borderopacity="1.0"
     bordercolor="#666666"
     pagecolor="#ffffff"
     id="base">
    <sodipodi:guide
       id="guide161"
       orientation="1,0"
       position="629.61696,1004.858" />
    <sodipodi:guide
       id="guide163"
       orientation="1,0"
       position="411.69169,932.07239" />
    <sodipodi:guide
       id="guide165"
       orientation="1,0"
       position="1021.2917,916.19739" />
    <sodipodi:guide
       id="guide167"
       orientation="1,0"
       position="678.8255,1175.1953" />
    <inkscape:grid
       id="grid169"
       type="xygrid" />
    <sodipodi:guide
       position="-2524.9182,3893.6876"
       orientation="1,0"
       id="guide300" />
    <sodipodi:guide
       position="-1978.8935,3941.8663"
       orientation="1,0"
       id="guide312" />
    <sodipodi:guide
       position="-2349.3924,3697.4484"
       orientation="1,0"
       id="guide318" />
    <sodipodi:guide
       position="-3006.768,3609.1253"
       orientation="1,0"
       id="guide344" />
    <sodipodi:guide
       position="-2821.2896,3572.5344"
       orientation="1,0"
       id="guide346" />
    <sodipodi:guide
       position="-3179.6287,3655.8104"
       orientation="1,0"
       id="guide348" />
    <sodipodi:guide
       position="-2645.3648,3555.5449"
       orientation="1,0"
       id="guide350" />
    <sodipodi:guide
       position="-2635.1804,3726.4688"
       orientation="1,0"
       id="guide352" />
    <sodipodi:guide
       position="1641.3575,434.13105"
       orientation="1,0"
       id="guide347" />
    <sodipodi:guide
       position="1694.7303,333.69834"
       orientation="1,0"
       id="guide349" />
  </sodipodi:namedview>
  <metadata
     id="metadata5">
    <rdf:RDF>
      <cc:Work
         rdf:about="">
        <dc:format>image/svg+xml</dc:format>
        <dc:type
           rdf:resource="http://purl.org/dc/dcmitype/StillImage" />
        <dc:title />
      </cc:Work>
    </rdf:RDF>
  </metadata>
  <g
     transform="translate(191.76821,652.94821)"
     id="layer1"
     inkscape:groupmode="layer"
     inkscape:label="Layer 1">
    <g
       transform="translate(659.98638,-2.2956048)"
       inkscape:export-ydpi="96"
       inkscape:export-xdpi="96"
       inkscape:export-filename="C:\Users\levan\GitHub\concept_gen_analysis\inputs\beak_tail_space\birdparts\body.png"
       id="g1050">
      <g
         transform="translate(-24.38293,-6.7628213)"
         id="g1062">
        <path
           sodipodi:nodetypes="cccscsccccccccccccccccccccccccc"
           inkscape:connector-curvature="0"
           id="path1044"
           d="m 1527.6421,-6.4508223 c 0.6794,1.6736035 0.1847,3.160416 3.3321,5.2252932 -1.0708,9.2987087 -3.3426,18.2319271 -5.3489,27.2460331 -1.8316,2.193519 -4.3405,4.246985 -6.6144,5.044728 -4.4552,1.562983 -9.3159,0.35046 -15.5699,0.233695 -1.0388,0.209283 -2.5943,0.597759 -3.6578,0.752513 -2.9016,0.423283 -5.2504,0.751004 -7.1275,3.459885 2.2737,-0.838969 4.4093,-2.995788 6.8394,-2.345969 -0.1586,0.471832 -0.087,0.622033 3.3979,0.04553 1.3123,-0.518873 2.8894,-0.459709 4.1431,0.226014 1.3166,0.796536 3.2277,1.275939 6.9271,0.799554 -3.5002,1.201606 -8.5766,1.603659 -12.9561,2.359052 -3.0801,1.511087 -5.5336,2.795227 -7.2992,4.305876 2.4366,-0.860254 6.1332,-3.302581 6.1592,-1.140907 3.5831,-0.532532 5.8271,-2.762614 11.3776,-0.995286 3.4146,-0.40507 6.8849,-1.00132 10.7886,-3.091514 1.0344,-0.136597 0.9645,1.866566 1.2409,3.204549 0.841,0.751004 1.2833,1.583335 3.0382,2.149221 0.7332,-0.857182 0.9136,-1.796622 0.9922,-2.752274 0.3419,-3.183182 -0.087,-2.928285 -0.1863,-4.147336 2.5172,-0.314061 5.3008,-0.222997 6.8823,-1.960647 l 6.1185,-0.834443 c 0.4918,-1.016489 7.0082,-0.706981 8.2586,0.12151 0.873,-2.418354 -10.2337,-1.36544 -11.4179,-2.14859 -2.1701,0.406579 -5.1294,-0.226015 -7.2994,0.975537 -1.5147,-3.891534 0.5121,-7.352489 1.241,-10.971407 l 5.7042,-21.1133359 c 3.5041,-1.7846358 3.0581,-3.5691345 3.4722,-5.3537704 l 9.7964,-4.0717697 -33.0649,-5.198468 z"
           style="fill:#000000;stroke:none;stroke-width:0.138114;stroke-linecap:butt;stroke-linejoin:miter;stroke-miterlimit:4;stroke-dasharray:none;stroke-opacity:1" />
        <path
           sodipodi:nodetypes="cccscsccccccccccccccccccccccccc"
           inkscape:connector-curvature="0"
           id="path1046"
           d="m 1558.0356,-6.07639 c 0.6794,1.6736035 0.1847,3.160416 3.3323,5.22529324 -1.0708,9.29870866 -3.3428,18.23192676 -5.3491,27.24616976 -1.8315,2.193382 -4.3403,4.246876 -6.6144,5.044592 -4.455,1.562982 -9.3159,0.350459 -15.5699,0.233694 -1.0388,0.209283 -2.5943,0.597759 -3.6577,0.752513 -2.9017,0.423283 -5.2504,0.752513 -7.1276,3.459912 2.2737,-0.838996 4.4093,-2.995815 6.8394,-2.345996 -0.1586,0.471833 -0.087,0.622033 3.3979,0.04553 1.3123,-0.518873 2.8894,-0.459709 4.143,0.226015 1.3167,0.796508 3.2278,1.275938 6.9273,0.799525 -3.5001,1.201607 -8.5767,1.60366 -12.9562,2.359053 -3.0801,1.511087 -5.5334,2.795227 -7.2992,4.305875 2.4366,-0.860226 6.1332,-3.30258 6.1592,-1.140906 3.5831,-0.532533 5.8271,-2.762614 11.3776,-0.995259 3.4146,-0.405097 6.8849,-1.001347 10.7885,-3.091542 1.0345,-0.136596 0.9646,1.866566 1.241,3.204714 0.841,0.751004 1.2833,1.583308 3.0383,2.149057 0.7332,-0.855673 0.9136,-1.796622 0.9922,-2.752274 0.3419,-3.183182 -0.087,-2.928285 -0.1847,-4.147336 2.5171,-0.314061 5.3008,-0.222997 6.8822,-1.960483 l 6.1185,-0.834443 c 0.4918,-1.016488 7.0082,-0.707008 8.2587,0.12151 0.8729,-2.418353 -10.2338,-1.365439 -11.418,-2.148617 -2.1699,0.406606 -5.1293,-0.226015 -7.2994,0.975537 -1.5145,-3.891534 0.5121,-7.352489 1.241,-10.971242 l 5.7042,-21.1134734 c 3.5041,-1.7846633 3.0581,-3.5691346 3.4722,-5.3536333 l 9.7966,-4.0719343 -29.6377,0.151682 z"
           style="fill:#000000;stroke:none;stroke-width:0.138114;stroke-linecap:butt;stroke-linejoin:miter;stroke-miterlimit:4;stroke-dasharray:none;stroke-opacity:1" />
      </g>
      <path
         style="fill:#000000;stroke:none;stroke-width:0.0263262;stroke-linecap:butt;stroke-linejoin:miter;stroke-miterlimit:4;stroke-dasharray:none;stroke-opacity:1"
         d="m 1450.4433,-163.8968 c 9.3559,-27.38342 47.7439,-16.89548 51.5125,11.8216 1.2931,9.85348 -0.6564,19.87892 -3.7848,29.8184 52.5824,-0.5829 115.4107,67.926255 115.4107,67.926255 v 23.2573 c -2.6273,8.05417 -13.7666,25.1247173 -53.1298,20.397325 -56.9296,3.5089009 -84.814,-19.053423 -104.6976,-44.380939 -21.0702,-22.052969 -5.706,-53.228141 2.7322,-75.640211 0.082,-8.39317 -4.2652,-7.05379 -8.0345,-9.94244 z"
         id="path1048"
         inkscape:connector-curvature="0"
         sodipodi:nodetypes="cscccccccc" />
    </g>
    <path
       style="fill:#000000;stroke:none;stroke-width:0.264583px;stroke-linecap:butt;stroke-linejoin:miter;stroke-opacity:1"
       d="m 2273.5681,-56.62615 c 14.7911,4.717 40.2649,4.7728 69.4342,2.6014 v 13.9579 c -13.5145,-1.057 -64.7311,-7.5333 -69.439,6.698 z"
       id="path1058"
       inkscape:connector-curvature="0"
       sodipodi:nodetypes="ccccc"
       inkscape:export-xdpi="96"
       inkscape:export-ydpi="96" />
    <g
       id="g365"
       inkscape:export-filename="C:\Users\levan\GitHub\concept_gen_analysis\inputs\beak_tail_space\birdparts\body.png"
       inkscape:export-xdpi="96"
       inkscape:export-ydpi="96">
      <path
         sodipodi:nodetypes="cccscsccccccccccccccccccccccccc"
         inkscape:connector-curvature="0"
         id="path349"
         d="m 1527.6421,-6.4508223 c 0.6794,1.6736035 0.1847,3.160416 3.3321,5.2252932 -1.0708,9.2987087 -3.3426,18.2319271 -5.3489,27.2460331 -1.8316,2.193519 -4.3405,4.246985 -6.6144,5.044728 -4.4552,1.562983 -9.3159,0.35046 -15.5699,0.233695 -1.0388,0.209283 -2.5943,0.597759 -3.6578,0.752513 -2.9016,0.423283 -5.2504,0.751004 -7.1275,3.459885 2.2737,-0.838969 4.4093,-2.995788 6.8394,-2.345969 -0.1586,0.471832 -0.087,0.622033 3.3979,0.04553 1.3123,-0.518873 2.8894,-0.459709 4.1431,0.226014 1.3166,0.796536 3.2277,1.275939 6.9271,0.799554 -3.5002,1.201606 -8.5766,1.603659 -12.9561,2.359052 -3.0801,1.511087 -5.5336,2.795227 -7.2992,4.305876 2.4366,-0.860254 6.1332,-3.302581 6.1592,-1.140907 3.5831,-0.532532 5.8271,-2.762614 11.3776,-0.995286 3.4146,-0.40507 6.8849,-1.00132 10.7886,-3.091514 1.0344,-0.136597 0.9645,1.866566 1.2409,3.204549 0.841,0.751004 1.2833,1.583335 3.0382,2.149221 0.7332,-0.857182 0.9136,-1.796622 0.9922,-2.752274 0.3419,-3.183182 -0.087,-2.928285 -0.1863,-4.147336 2.5172,-0.314061 5.3008,-0.222997 6.8823,-1.960647 l 6.1185,-0.834443 c 0.4918,-1.016489 7.0082,-0.706981 8.2586,0.12151 0.873,-2.418354 -10.2337,-1.36544 -11.4179,-2.14859 -2.1701,0.406579 -5.1294,-0.226015 -7.2994,0.975537 -1.5147,-3.891534 0.5121,-7.352489 1.241,-10.971407 l 5.7042,-21.1133359 c 3.5041,-1.7846358 3.0581,-3.5691345 3.4722,-5.3537704 l 9.7964,-4.0717697 -33.0649,-5.198468 z"
         style="fill:#000000;stroke:none;stroke-width:0.138114;stroke-linecap:butt;stroke-linejoin:miter;stroke-miterlimit:4;stroke-dasharray:none;stroke-opacity:1" />
      <path
         sodipodi:nodetypes="cccscsccccccccccccccccccccccccc"
         inkscape:connector-curvature="0"
         id="path352"
         d="m 1558.0356,-6.07639 c 0.6794,1.6736035 0.1847,3.160416 3.3323,5.22529324 -1.0708,9.29870866 -3.3428,18.23192676 -5.3491,27.24616976 -1.8315,2.193382 -4.3403,4.246876 -6.6144,5.044592 -4.455,1.562982 -9.3159,0.350459 -15.5699,0.233694 -1.0388,0.209283 -2.5943,0.597759 -3.6577,0.752513 -2.9017,0.423283 -5.2504,0.752513 -7.1276,3.459912 2.2737,-0.838996 4.4093,-2.995815 6.8394,-2.345996 -0.1586,0.471833 -0.087,0.622033 3.3979,0.04553 1.3123,-0.518873 2.8894,-0.459709 4.143,0.226015 1.3167,0.796508 3.2278,1.275938 6.9273,0.799525 -3.5001,1.201607 -8.5767,1.60366 -12.9562,2.359053 -3.0801,1.511087 -5.5334,2.795227 -7.2992,4.305875 2.4366,-0.860226 6.1332,-3.30258 6.1592,-1.140906 3.5831,-0.532533 5.8271,-2.762614 11.3776,-0.995259 3.4146,-0.405097 6.8849,-1.001347 10.7885,-3.091542 1.0345,-0.136596 0.9646,1.866566 1.241,3.204714 0.841,0.751004 1.2833,1.583308 3.0383,2.149057 0.7332,-0.855673 0.9136,-1.796622 0.9922,-2.752274 0.3419,-3.183182 -0.087,-2.928285 -0.1847,-4.147336 2.5171,-0.314061 5.3008,-0.222997 6.8822,-1.960483 l 6.1185,-0.834443 c 0.4918,-1.016488 7.0082,-0.707008 8.2587,0.12151 0.8729,-2.418353 -10.2338,-1.365439 -11.418,-2.148617 -2.1699,0.406606 -5.1293,-0.226015 -7.2994,0.975537 -1.5145,-3.891534 0.5121,-7.352489 1.241,-10.971242 l 5.7042,-21.1134734 c 3.5041,-1.7846633 3.0581,-3.5691346 3.4722,-5.3536333 l 9.7966,-4.0719343 -29.6377,0.151682 z"
         style="fill:#000000;stroke:none;stroke-width:0.138114;stroke-linecap:butt;stroke-linejoin:miter;stroke-miterlimit:4;stroke-dasharray:none;stroke-opacity:1" />
      <path
         sodipodi:nodetypes="cscsscccccccc"
         inkscape:connector-curvature="0"
         id="path360"
         d="m 1450.4433,-163.8968 c 9.3559,-27.38342 47.7439,-16.89548 51.5125,11.8216 1.2931,9.85348 -0.6564,19.87892 -3.7848,29.8184 31.1516,-2.25192 63.865,6.26586 94.3765,22.10566 18.9923,9.859709 43.573,26.536807 60.6614,44.968546 3.8334,4.134768 6.0144,8.41473 6.0144,8.41473 l 0.01,23.25729 c -4.6916,13.6595021 -24.3464,12.632368 -47.5744,14.269407 -15.6354,-0.2373651 -32.4162,0.8374049 -51.2214,-1.434753 -56.9296,3.5089009 -84.814,-19.053423 -104.6976,-44.380939 -21.0702,-22.052969 -5.706,-53.228141 2.7322,-75.640211 0.082,-8.39317 -4.2652,-7.05379 -8.0345,-9.94244 z"
         style="fill:#000000;stroke:none;stroke-width:0.0263262;stroke-linecap:butt;stroke-linejoin:miter;stroke-miterlimit:4;stroke-dasharray:none;stroke-opacity:1" />
    </g>
    <text
       id="text5826-1"
       y="211.10878"
       x="241.69669"
       style="font-style:normal;font-weight:normal;font-size:3.35139px;line-height:100%;font-family:sans-serif;text-align:center;letter-spacing:0px;word-spacing:0px;text-anchor:middle;fill:#000000;fill-opacity:1;stroke:none;stroke-width:0.264583"
       xml:space="preserve" />
    <text
       id="text5826-8"
       y="186.4576"
       x="281.99857"
       style="font-style:normal;font-weight:normal;font-size:3.35139px;line-height:100%;font-family:sans-serif;text-align:center;letter-spacing:0px;word-spacing:0px;text-anchor:middle;fill:#000000;fill-opacity:1;stroke:none;stroke-width:0.264583"
       xml:space="preserve" />
    <flowRoot
       style="font-style:normal;font-weight:normal;font-size:12.6667px;line-height:100%;font-family:sans-serif;text-align:center;letter-spacing:0px;word-spacing:0px;text-anchor:middle;fill:#000000;fill-opacity:1;stroke:none"
       id="flowRoot6987"
       xml:space="preserve"><flowRegion
         id="flowRegion6989"><rect
           y="-47.299194"
           x="-45"
           height="294"
           width="483"
           id="rect6991" /></flowRegion><flowPara
         id="flowPara6993" /></flowRoot>
    <g
       inkscape:export-filename="C:\Users\levan\GitHub\concept_gen_analysis\inputs\beak_tail_space\birdparts\body.png"
       inkscape:export-ydpi="96"
       inkscape:export-xdpi="96"
       style="stroke-width:0.36457857"
       transform="matrix(2.7428929,0,0,2.7428929,-585.8943,-794.29578)"
       id="g138">
      <path
         style="fill:#000000;stroke:none;stroke-width:0.05060615;stroke-linecap:butt;stroke-linejoin:miter;stroke-miterlimit:4;stroke-dasharray:none;stroke-opacity:1"
         d="m 392.91759,284.52144 c 0.25019,0.61016 0.068,1.15222 1.22703,1.90503 -0.39431,3.39011 -1.23089,6.64697 -1.9697,9.93332 -0.67451,0.79971 -1.59837,1.54836 -2.43575,1.8392 -1.64059,0.56983 -3.43054,0.12777 -5.73353,0.0852 -0.38253,0.0763 -0.95536,0.21793 -1.347,0.27435 -1.0685,0.15432 -1.93343,0.2738 -2.62466,1.2614 0.83728,-0.30587 1.62371,-1.0922 2.51858,-0.85529 -0.0584,0.17202 -0.0321,0.22678 1.25126,0.0166 0.48325,-0.18917 1.06401,-0.1676 1.52567,0.0824 0.48485,0.2904 1.18862,0.46518 2.55088,0.2915 -1.28892,0.43808 -3.15827,0.58466 -4.771,0.86006 -1.13424,0.55091 -2.03774,1.01908 -2.68793,1.56983 0.89728,-0.31363 2.25853,-1.20405 2.26812,-0.41595 1.31945,-0.19415 2.1458,-1.00719 4.18976,-0.36286 1.25741,-0.14768 2.53534,-0.36506 3.97283,-1.1271 0.38092,-0.0498 0.3552,0.68051 0.45699,1.16831 0.30967,0.2738 0.47254,0.57725 1.11877,0.78356 0.27002,-0.31251 0.33645,-0.65501 0.36538,-1.00342 0.1259,-1.16052 -0.0321,-1.06759 -0.0686,-1.51203 0.92697,-0.1145 1.95202,-0.0813 2.53439,-0.71481 l 2.25311,-0.30422 c 0.18109,-0.37059 2.58073,-0.25775 3.04121,0.0443 0.32145,-0.88168 -3.76855,-0.49781 -4.2046,-0.78333 -0.79913,0.14823 -1.8889,-0.0824 -2.68798,0.35566 -0.55778,-1.41877 0.18858,-2.68056 0.457,-3.99994 l 2.10053,-7.69747 c 1.29036,-0.65064 1.12615,-1.30123 1.27863,-1.95187 l 3.6075,-1.48448 -12.17603,-1.89525 z"
         id="path132"
         inkscape:connector-curvature="0"
         sodipodi:nodetypes="cccscsccccccccccccccccccccccccc" />
      <path
         style="fill:#000000;stroke:none;stroke-width:0.05060615;stroke-linecap:butt;stroke-linejoin:miter;stroke-miterlimit:4;stroke-dasharray:none;stroke-opacity:1"
         d="m 404.10987,284.65795 c 0.25019,0.61016 0.068,1.15222 1.22709,1.90503 -0.39432,3.39011 -1.23095,6.64697 -1.96976,9.93337 -0.67446,0.79966 -1.59831,1.54832 -2.43575,1.83915 -1.64053,0.56983 -3.43054,0.12777 -5.73353,0.0852 -0.38253,0.0763 -0.95536,0.21793 -1.34694,0.27435 -1.06856,0.15432 -1.93343,0.27435 -2.62472,1.26141 0.83728,-0.30588 1.62371,-1.09221 2.51858,-0.8553 -0.0584,0.17202 -0.0321,0.22678 1.25126,0.0166 0.48325,-0.18917 1.06401,-0.1676 1.52566,0.0824 0.48486,0.29039 1.18863,0.46518 2.55094,0.29149 -1.28891,0.43808 -3.15832,0.58466 -4.77105,0.86006 -1.13424,0.55091 -2.03768,1.01908 -2.68793,1.56983 0.89728,-0.31362 2.25853,-1.20405 2.26812,-0.41595 1.31945,-0.19415 2.1458,-1.00719 4.18975,-0.36285 1.25742,-0.14769 2.53535,-0.36507 3.97284,-1.12711 0.38092,-0.0498 0.3552,0.68051 0.45699,1.16837 0.30967,0.2738 0.47254,0.57724 1.11882,0.7835 0.27002,-0.31196 0.33645,-0.65501 0.36538,-1.00342 0.12591,-1.16052 -0.0321,-1.06759 -0.068,-1.51203 0.92691,-0.1145 1.95197,-0.0813 2.53433,-0.71475 l 2.25312,-0.30422 c 0.18108,-0.37059 2.58073,-0.25776 3.04121,0.0443 0.32145,-0.88168 -3.76855,-0.49781 -4.2046,-0.78334 -0.79908,0.14824 -1.88886,-0.0824 -2.68799,0.35566 -0.55772,-1.41877 0.18859,-2.68056 0.457,-3.99988 l 2.10053,-7.69752 c 1.29037,-0.65065 1.12616,-1.30123 1.27863,-1.95182 l 3.60756,-1.48454 -10.91396,0.0553 z"
         id="path134"
         inkscape:connector-curvature="0"
         sodipodi:nodetypes="cccscsccccccccccccccccccccccccc" />
      <path
         style="fill:#000000;stroke:none;stroke-width:0.00964614;stroke-linecap:butt;stroke-linejoin:miter;stroke-miterlimit:4;stroke-dasharray:none;stroke-opacity:1"
         d="m 364.48944,227.12001 c 3.44528,-9.98341 17.58151,-6.15973 18.96926,4.3099 0.47617,3.59237 -0.24171,7.24743 -1.39374,10.87115 11.47145,-0.821 23.51805,2.2844 34.75377,8.05925 6.99383,3.59464 14.85816,10.99778 22.33831,16.39457 l 8.36312,4.76558 0.22685,6.83787 c -5.17749,-0.14769 -6.22728,2.39395 -9.641,3.44011 -2.68928,2.88076 -7.50191,3.13262 -14.09295,1.18262 -5.8105,0.75039 -12.09563,0.82838 -19.02056,0 -20.9641,1.27927 -31.23243,-6.94647 -38.55448,-16.18034 -7.75901,-8.04004 -2.10121,-19.40584 1.00612,-27.5768 0.0302,-3.05997 -1.57063,-2.57166 -2.95869,-3.6248 z"
         id="path136"
         inkscape:connector-curvature="0"
         sodipodi:nodetypes="cscscccccccccc" />
    </g>
    <path
       inkscape:export-ydpi="96"
       inkscape:export-xdpi="96"
       sodipodi:nodetypes="cccccc"
       inkscape:connector-curvature="0"
       id="path140"
       d="m 711.96574,-30.870285 0.004,-20.704309 c -20.95176,10.534902 -53.97885,11.298681 -65.00662,2.030557 l -0.004,18.756059 c 21.65754,-1.854806 43.36365,-3.150595 65.00645,-0.07634 z"
       style="fill:#000000;stroke:none;stroke-width:4.40206px;stroke-linecap:butt;stroke-linejoin:miter;stroke-opacity:1" />
    <path
       sodipodi:nodetypes="cccccccc"
       inkscape:connector-curvature="0"
       id="path144"
       d="m 717.26141,-51.574594 53.37081,-21.874044 -13.30131,13.514732 68.31507,-17.858138 c -10.1139,11.946519 -21.93371,23.315261 -55.92245,27.175902 -5.65594,2.618492 -12.79813,16.832489 -33.37744,19.558581 l -19.08781,0.187582 z"
       style="fill:#000000;stroke:none;stroke-width:0.0132292;stroke-linecap:butt;stroke-linejoin:miter;stroke-miterlimit:4;stroke-dasharray:none;stroke-opacity:1" />
    <path
       inkscape:export-ydpi="96"
       inkscape:export-xdpi="96"
       style="fill:#000000;stroke:none;stroke-width:0.01322916;stroke-linecap:butt;stroke-linejoin:miter;stroke-miterlimit:4;stroke-dasharray:none;stroke-opacity:1"
       d="m 768.44942,181.42719 182.6111,-74.8432 -45.51113,46.24137 233.74361,-61.102595 c -34.6052,40.875665 -75.0473,79.774425 -191.3416,92.983825 -19.3521,8.95929 -43.7895,57.59327 -114.20272,66.92074 l -65.30998,0.64181 z"
       id="path150"
       inkscape:connector-curvature="0"
       sodipodi:nodetypes="cccccccc" />
    <path
       inkscape:export-ydpi="96"
       inkscape:export-xdpi="96"
       sodipodi:nodetypes="ccccc"
       inkscape:connector-curvature="0"
       id="path162"
       d="m 408.56739,-147.86954 c -14.79106,-4.71708 -40.26492,-4.77283 -69.4342,-2.6014 v -13.95799 c 13.51451,1.05705 64.73116,7.53338 69.439,-6.69794 z"
       style="fill:#000000;stroke:none;stroke-width:0.264583px;stroke-linecap:butt;stroke-linejoin:miter;stroke-opacity:1" />
    <path
       sodipodi:nodetypes="cccccccccc"
       inkscape:connector-curvature="0"
       id="path164"
       d="m 255.11061,-170.3215 c -3.58048,0.10158 -6.90738,0.45404 -10.33794,2.53592 -17.30766,4.25537 -26.36757,25.60924 -11.52494,38.52397 -0.70317,-3.98563 -2.46709,-7.50786 -1.4262,-11.92118 4.62473,-0.51129 10.00556,-0.24371 12.64514,-2.78672 1.99859,1.34489 7.4761,0.0151 10.62255,-0.20679 33.13719,-3.75577 53.83614,-4.95682 78.7523,-6.29464 v -13.95799 c -33.2488,-1.67958 -58.90279,-3.21887 -78.73096,-5.89257 z"
       style="fill:#000000;stroke:none;stroke-width:0.065;stroke-linecap:butt;stroke-linejoin:miter;stroke-miterlimit:4;stroke-dasharray:none;stroke-opacity:1" />
    <path
       style="fill:#000000;stroke:none;stroke-width:0.26458341px;stroke-linecap:butt;stroke-linejoin:miter;stroke-opacity:1"
       d="M 494.02997,268.26023 C 442.02335,251.67458 352.45509,251.47856 249.89341,259.11349 v -49.07748 c 47.51817,3.71668 227.60028,26.488 244.15344,-23.55053 z"
       id="path166"
       inkscape:connector-curvature="0"
       sodipodi:nodetypes="ccccc"
       inkscape:export-xdpi="96"
       inkscape:export-ydpi="96" />
    <path
       inkscape:export-ydpi="96"
       inkscape:export-xdpi="96"
       style="fill:#000000;stroke:none;stroke-width:0.06500003;stroke-linecap:butt;stroke-linejoin:miter;stroke-miterlimit:4;stroke-dasharray:none;stroke-opacity:1"
       d="m -60.797832,187.20056 c -12.589271,0.35717 -24.286931,1.59645 -36.349081,8.91651 -60.855197,14.96225 -92.710607,90.04427 -40.522667,135.45356 -2.4724,-14.01382 -8.67449,-26.39828 -5.01464,-41.91589 16.26095,-1.79774 35.1804,-0.8569 44.461387,-9.79834 7.02721,4.72875 26.28661,0.0531 37.349792,-0.72709 C 55.640137,265.9237 128.4194,261.70071 216.02674,256.99682 V 207.91934 C 99.121133,202.01379 8.9195173,196.60152 -60.798008,187.20056 Z"
       id="path168"
       inkscape:connector-curvature="0"
       sodipodi:nodetypes="cccccccccc" />
    <path
       style="fill:#000000;stroke:none;stroke-width:4.40205526px;stroke-linecap:butt;stroke-linejoin:miter;stroke-opacity:1"
       d="m 745.64146,253.17118 0.0134,-69.24003 c -70.06758,35.23116 -180.51784,37.78542 -217.39727,6.79066 l -0.0134,62.72462 c 72.42784,-6.2029 145.01812,-10.53632 217.39667,-0.2553 z"
       id="path170"
       inkscape:connector-curvature="0"
       sodipodi:nodetypes="cccccc"
       inkscape:export-xdpi="96"
       inkscape:export-ydpi="96" />
    <path
       sodipodi:nodetypes="cccccccccccc"
       inkscape:connector-curvature="0"
       id="path347"
       d="m 1807.3884,-24.315964 c 3.5805,-0.1016 6.9074,-0.454 10.338,-2.5359 17.3076,-4.2554 26.3675,-25.6092 11.5249,-38.524 0.7032,3.9857 -12.5478,17.0444 -13.5887,21.4577 -4.6247,0.5113 -1.8912,-13.6486 -1.8912,-13.6486 -4.7019,5.3344 -10.6308,9.5644 -14.072,16.0334 -5.2485,-0.7137 0.3215,-9.8418 0.4822,-14.7627 0,0 -17.1472,8.3695 -20.3576,8.6586 -18.7129,1.6855 -33.9307,2.5455 -51.1665,3.471 v 13.9579 c 33.2488,1.6796 58.9028,3.2189 78.731,5.8926 z"
       style="fill:#000000;stroke:none;stroke-width:0.065;stroke-linecap:butt;stroke-linejoin:miter;stroke-miterlimit:4;stroke-dasharray:none;stroke-opacity:1" />
    <path
       style="fill:#000000;stroke:none;stroke-width:0.264583px;stroke-linecap:butt;stroke-linejoin:miter;stroke-opacity:1"
       d="m 1450.4376,-140.63951 c -14.7911,-4.717 -40.2649,-4.7728 -69.4342,-2.6014 v -13.9579 c 13.5145,1.057 64.7311,7.5333 69.439,-6.698 z"
       id="path365"
       inkscape:connector-curvature="0"
       sodipodi:nodetypes="ccccc"
       inkscape:export-xdpi="96"
       inkscape:export-ydpi="96" />
    <path
       style="fill:#000000;stroke:none;stroke-width:0.065;stroke-linecap:butt;stroke-linejoin:miter;stroke-miterlimit:4;stroke-dasharray:none;stroke-opacity:1"
       d="m 1302.2674,-163.09141 c -3.5805,0.1016 -6.9074,0.454 -10.338,2.5359 -17.3076,4.2554 -26.3675,25.60919 -11.5249,38.52399 -0.7032,-3.9857 -2.4671,-7.5079 -1.4262,-11.9212 4.6247,-0.5113 10.0055,-0.2437 12.6451,-2.78669 1.9986,1.3449 7.4761,0.015 10.6226,-0.2068 33.1372,-3.7558 53.8361,-4.9568 78.7523,-6.2947 v -13.9579 c -33.2488,-1.6796 -58.9028,-3.2189 -78.731,-5.8926 z"
       id="path367"
       inkscape:connector-curvature="0"
       sodipodi:nodetypes="cccccccccc" />
    <path
       inkscape:export-ydpi="96"
       inkscape:export-xdpi="96"
       sodipodi:nodetypes="ccccc"
       inkscape:connector-curvature="0"
       id="path369"
       d="m 1659.2233,-46.767864 c 14.7911,4.717 40.2649,4.7728 69.4342,2.6014 v 13.9579 c -13.5145,-1.057 -64.7311,-7.5333 -69.439,6.698 z"
       style="fill:#000000;stroke:none;stroke-width:0.264583px;stroke-linecap:butt;stroke-linejoin:miter;stroke-opacity:1" />
    <text
       id="text373"
       y="-252.65717"
       x="1378.7056"
       style="font-style:normal;font-weight:normal;font-size:66.2316px;line-height:1.25;font-family:sans-serif;fill:#000000;fill-opacity:1;stroke:none;stroke-width:1.65579"
       xml:space="preserve"><tspan
         style="stroke-width:1.65579"
         y="-252.65717"
         x="1378.7056"
         sodipodi:role="line"
         id="tspan335">New Bird</tspan></text>
    <text
       xml:space="preserve"
       style="font-style:normal;font-weight:normal;font-size:83.5195px;line-height:1.25;font-family:sans-serif;fill:#000000;fill-opacity:1;stroke:none;stroke-width:2.08799"
       x="348.19455"
       y="-244.01059"
       id="text333"><tspan
         sodipodi:role="line"
         id="tspan331"
         x="348.19455"
         y="-244.01059"
         style="stroke-width:2.08799">Old bird</tspan></text>
    <path
       style="fill:#000000;stroke:none;stroke-width:0.235005;stroke-linecap:butt;stroke-linejoin:miter;stroke-miterlimit:4;stroke-dasharray:none;stroke-opacity:1"
       d="m 2542.4187,321.32302 c 12.9453,-0.36732 24.9736,-1.64142 37.3766,-9.16846 62.5752,-15.38524 95.3309,-92.58915 41.6681,-139.28215 2.5423,14.41016 -45.3663,61.62343 -49.1296,77.57956 -16.7204,1.84858 -6.8375,-49.34604 -6.8375,-49.34604 -16.9996,19.28633 -38.4353,34.57976 -50.8768,57.9682 -18.9757,-2.58035 1.1624,-35.58268 1.7434,-53.37402 0,0 -61.9951,30.25962 -73.6022,31.30486 -67.6559,6.09387 -122.6753,9.20315 -184.9907,12.54928 v 50.46429 c 120.2099,6.07253 212.961,11.63783 284.6492,21.30448 z"
       id="path368"
       inkscape:connector-curvature="0"
       sodipodi:nodetypes="cccccccccccc"
       inkscape:export-xdpi="96"
       inkscape:export-ydpi="96" />
    <path
       inkscape:export-ydpi="96"
       inkscape:export-xdpi="96"
       sodipodi:nodetypes="ccccc"
       inkscape:connector-curvature="0"
       id="path370"
       d="m 1875.0177,300.93219 c -53.4766,-17.05414 -145.5763,-17.25588 -251.0369,-9.40526 v -50.46428 c 48.8613,3.82154 234.0331,27.23637 251.0543,-24.21639 z"
       style="fill:#000000;stroke:none;stroke-width:0.95659px;stroke-linecap:butt;stroke-linejoin:miter;stroke-opacity:1" />
    <path
       sodipodi:nodetypes="cccccccccc"
       inkscape:connector-curvature="0"
       id="path372"
       d="m 1320.2001,219.75816 c -12.9451,0.36731 -24.9734,1.64141 -37.3767,9.16845 -62.5749,15.38525 -95.3308,92.58911 -41.6678,139.28212 -2.5424,-14.41016 -8.9198,-27.14454 -5.1564,-43.10068 16.7204,-1.84859 36.1745,-0.88108 45.7179,-10.07517 7.2258,4.86243 27.0296,0.0542 38.4056,-0.74769 119.8063,-13.57895 194.6426,-17.92113 284.7262,-22.75826 v -50.46428 c -120.2098,-6.07255 -212.961,-11.63783 -284.6491,-21.30449 z"
       style="fill:#000000;stroke:none;stroke-width:0.235005;stroke-linecap:butt;stroke-linejoin:miter;stroke-miterlimit:4;stroke-dasharray:none;stroke-opacity:1"
       inkscape:export-xdpi="96"
       inkscape:export-ydpi="96" />
    <path
       style="fill:#000000;stroke:none;stroke-width:0.95659px;stroke-linecap:butt;stroke-linejoin:miter;stroke-opacity:1"
       d="m 1987.6012,225.33787 c 53.4767,17.05414 145.5763,17.25588 251.0368,9.40526 v 50.46429 c -48.8611,-3.82154 -234.033,-27.23638 -251.0542,24.21638 z"
       id="path374"
       inkscape:connector-curvature="0"
       sodipodi:nodetypes="ccccc"
       inkscape:export-xdpi="96"
       inkscape:export-ydpi="96" />
    <path
       style="fill:#000000;stroke:none;stroke-width:0.065;stroke-linecap:butt;stroke-linejoin:miter;stroke-miterlimit:4;stroke-dasharray:none;stroke-opacity:1"
       d="m 2421.7332,-34.17425 c 3.5805,-0.1016 6.9074,-0.454 10.338,-2.5359 17.3076,-4.2554 26.3675,-25.6092 11.5249,-38.524 0.7032,3.9857 -12.5478,17.0444 -13.5887,21.4577 -4.6247,0.5113 -1.8912,-13.6486 -1.8912,-13.6486 -4.7019,5.3344 -10.6308,9.5644 -14.072,16.0334 -5.2485,-0.7137 0.3215,-9.8418 0.4822,-14.7627 0,0 -17.1472,8.3695 -20.3576,8.6586 -18.7129,1.6855 -33.9307,2.5455 -51.1665,3.471 v 13.9579 c 33.2488,1.6796 58.9028,3.2189 78.731,5.8926 z"
       id="path1052"
       inkscape:connector-curvature="0"
       sodipodi:nodetypes="cccccccccccc" />
    <path
       inkscape:export-ydpi="96"
       inkscape:export-xdpi="96"
       sodipodi:nodetypes="ccccc"
       inkscape:connector-curvature="0"
       id="path1054"
       d="m 2110.424,-142.93511 c -14.7911,-4.717 -40.2649,-4.7728 -69.4342,-2.6014 v -13.9579 c 13.5145,1.057 64.7311,7.5333 69.439,-6.698 z"
       style="fill:#000000;stroke:none;stroke-width:0.264583px;stroke-linecap:butt;stroke-linejoin:miter;stroke-opacity:1" />
    <path
       sodipodi:nodetypes="cccccccccc"
       inkscape:connector-curvature="0"
       id="path1056"
       d="m 1962.2538,-165.38701 c -3.5805,0.1016 -6.9074,0.454 -10.338,2.5359 -17.3076,4.2554 -26.3675,25.60919 -11.5249,38.52399 -0.7032,-3.9857 -2.4671,-7.5079 -1.4262,-11.9212 4.6247,-0.5113 10.0055,-0.2437 12.6451,-2.78669 1.9986,1.3449 7.4761,0.015 10.6226,-0.2068 33.1372,-3.7558 53.8361,-4.9568 78.7523,-6.2947 v -13.9579 c -33.2488,-1.6796 -58.9028,-3.2189 -78.731,-5.8926 z"
       style="fill:#000000;stroke:none;stroke-width:0.065;stroke-linecap:butt;stroke-linejoin:miter;stroke-miterlimit:4;stroke-dasharray:none;stroke-opacity:1" />
    <g
       id="g1072"
       inkscape:export-filename="C:\Users\levan\GitHub\concept_gen_analysis\inputs\beak_tail_space\birdparts\body.png"
       inkscape:export-xdpi="96"
       inkscape:export-ydpi="96"
       transform="translate(1268.5299,-2.2956048)">
      <g
         id="g1068"
         transform="translate(-26.006168,-11.226725)">
        <path
           style="fill:#000000;stroke:none;stroke-width:0.138114;stroke-linecap:butt;stroke-linejoin:miter;stroke-miterlimit:4;stroke-dasharray:none;stroke-opacity:1"
           d="m 1527.6421,-6.4508223 c 0.6794,1.6736035 0.1847,3.160416 3.3321,5.2252932 -1.0708,9.2987087 -3.3426,18.2319271 -5.3489,27.2460331 -1.8316,2.193519 -4.3405,4.246985 -6.6144,5.044728 -4.4552,1.562983 -9.3159,0.35046 -15.5699,0.233695 -1.0388,0.209283 -2.5943,0.597759 -3.6578,0.752513 -2.9016,0.423283 -5.2504,0.751004 -7.1275,3.459885 2.2737,-0.838969 4.4093,-2.995788 6.8394,-2.345969 -0.1586,0.471832 -0.087,0.622033 3.3979,0.04553 1.3123,-0.518873 2.8894,-0.459709 4.1431,0.226014 1.3166,0.796536 3.2277,1.275939 6.9271,0.799554 -3.5002,1.201606 -8.5766,1.603659 -12.9561,2.359052 -3.0801,1.511087 -5.5336,2.795227 -7.2992,4.305876 2.4366,-0.860254 6.1332,-3.302581 6.1592,-1.140907 3.5831,-0.532532 5.8271,-2.762614 11.3776,-0.995286 3.4146,-0.40507 6.8849,-1.00132 10.7886,-3.091514 1.0344,-0.136597 0.9645,1.866566 1.2409,3.204549 0.841,0.751004 1.2833,1.583335 3.0382,2.149221 0.7332,-0.857182 0.9136,-1.796622 0.9922,-2.752274 0.3419,-3.183182 -0.087,-2.928285 -0.1863,-4.147336 2.5172,-0.314061 5.3008,-0.222997 6.8823,-1.960647 l 6.1185,-0.834443 c 0.4918,-1.016489 7.0082,-0.706981 8.2586,0.12151 0.873,-2.418354 -10.2337,-1.36544 -11.4179,-2.14859 -2.1701,0.406579 -5.1294,-0.226015 -7.2994,0.975537 -1.5147,-3.891534 0.5121,-7.352489 1.241,-10.971407 l 5.7042,-21.1133359 c 3.5041,-1.7846358 3.0581,-3.5691345 3.4722,-5.3537704 l 9.7964,-4.0717697 -33.0649,-5.198468 z"
           id="path1064"
           inkscape:connector-curvature="0"
           sodipodi:nodetypes="cccscsccccccccccccccccccccccccc" />
        <path
           style="fill:#000000;stroke:none;stroke-width:0.138114;stroke-linecap:butt;stroke-linejoin:miter;stroke-miterlimit:4;stroke-dasharray:none;stroke-opacity:1"
           d="m 1558.0356,-6.07639 c 0.6794,1.6736035 0.1847,3.160416 3.3323,5.22529324 -1.0708,9.29870866 -3.3428,18.23192676 -5.3491,27.24616976 -1.8315,2.193382 -4.3403,4.246876 -6.6144,5.044592 -4.455,1.562982 -9.3159,0.350459 -15.5699,0.233694 -1.0388,0.209283 -2.5943,0.597759 -3.6577,0.752513 -2.9017,0.423283 -5.2504,0.752513 -7.1276,3.459912 2.2737,-0.838996 4.4093,-2.995815 6.8394,-2.345996 -0.1586,0.471833 -0.087,0.622033 3.3979,0.04553 1.3123,-0.518873 2.8894,-0.459709 4.143,0.226015 1.3167,0.796508 3.2278,1.275938 6.9273,0.799525 -3.5001,1.201607 -8.5767,1.60366 -12.9562,2.359053 -3.0801,1.511087 -5.5334,2.795227 -7.2992,4.305875 2.4366,-0.860226 6.1332,-3.30258 6.1592,-1.140906 3.5831,-0.532533 5.8271,-2.762614 11.3776,-0.995259 3.4146,-0.405097 6.8849,-1.001347 10.7885,-3.091542 1.0345,-0.136596 0.9646,1.866566 1.241,3.204714 0.841,0.751004 1.2833,1.583308 3.0383,2.149057 0.7332,-0.855673 0.9136,-1.796622 0.9922,-2.752274 0.3419,-3.183182 -0.087,-2.928285 -0.1847,-4.147336 2.5171,-0.314061 5.3008,-0.222997 6.8822,-1.960483 l 6.1185,-0.834443 c 0.4918,-1.016488 7.0082,-0.707008 8.2587,0.12151 0.8729,-2.418353 -10.2338,-1.365439 -11.418,-2.148617 -2.1699,0.406606 -5.1293,-0.226015 -7.2994,0.975537 -1.5145,-3.891534 0.5121,-7.352489 1.241,-10.971242 l 5.7042,-21.1134734 c 3.5041,-1.7846633 3.0581,-3.5691346 3.4722,-5.3536333 l 9.7966,-4.0719343 -29.6377,0.151682 z"
           id="path1066"
           inkscape:connector-curvature="0"
           sodipodi:nodetypes="cccscsccccccccccccccccccccccccc" />
      </g>
      <path
         sodipodi:nodetypes="cscccccccc"
         inkscape:connector-curvature="0"
         id="path1070"
         d="m 1450.4433,-163.8968 c 9.3559,-27.38342 47.7439,-16.89548 51.5125,11.8216 1.2931,9.85348 -0.6564,19.87892 -3.7848,29.8184 52.5824,-0.5829 90.5419,67.926255 90.5419,67.926255 v 23.2573 c -3.2952,9.459754 -21.599,9.943451 -36.1695,10.252089 -56.9296,3.508901 -76.9007,-8.908187 -96.7843,-34.235703 -21.0702,-22.052969 -5.706,-53.228141 2.7322,-75.640211 0.082,-8.39317 -4.2652,-7.05379 -8.0345,-9.94244 z"
         style="fill:#000000;stroke:none;stroke-width:0.0263262;stroke-linecap:butt;stroke-linejoin:miter;stroke-miterlimit:4;stroke-dasharray:none;stroke-opacity:1" />
    </g>
    <g
       transform="translate(-24.870833)"
       id="g1084">
      <path
         style="fill:#000000;stroke:none;stroke-width:0.264583px;stroke-linecap:butt;stroke-linejoin:miter;stroke-opacity:1"
         d="m 2882.1136,-56.62615 c 14.7911,4.717 40.2649,4.7728 69.4342,2.6014 v 13.9579 c -13.5145,-1.057 -64.7311,-7.5333 -69.439,6.698 z"
         id="path1074"
         inkscape:connector-curvature="0"
         sodipodi:nodetypes="ccccc"
         inkscape:export-xdpi="96"
         inkscape:export-ydpi="96" />
      <path
         style="fill:#000000;stroke:none;stroke-width:0.065;stroke-linecap:butt;stroke-linejoin:miter;stroke-miterlimit:4;stroke-dasharray:none;stroke-opacity:1"
         d="m 3030.2787,-34.17425 c 3.5805,-0.1016 6.9074,-0.454 10.338,-2.5359 17.3076,-4.2554 26.3675,-25.6092 11.5249,-38.524 0.7032,3.9857 -12.5478,17.0444 -13.5887,21.4577 -4.6247,0.5113 -1.8912,-13.6486 -1.8912,-13.6486 -4.7019,5.3344 -10.6308,9.5644 -14.072,16.0334 -5.2485,-0.7137 0.3215,-9.8418 0.4822,-14.7627 0,0 -17.1472,8.3695 -20.3576,8.6586 -18.7129,1.6855 -33.9307,2.5455 -51.1665,3.471 v 13.9579 c 33.2488,1.6796 58.9028,3.2189 78.731,5.8926 z"
         id="path1076"
         inkscape:connector-curvature="0"
         sodipodi:nodetypes="cccccccccccc" />
    </g>
    <path
       style="fill:#000000;stroke:none;stroke-width:0.264583px;stroke-linecap:butt;stroke-linejoin:miter;stroke-opacity:1"
       d="m 2718.9867,-142.93511 c -14.7911,-4.717 -40.2649,-4.7728 -69.4342,-2.6014 v -13.9579 c 13.5145,1.057 64.7311,7.5333 69.439,-6.698 z"
       id="path1078"
       inkscape:connector-curvature="0"
       sodipodi:nodetypes="ccccc"
       inkscape:export-xdpi="96"
       inkscape:export-ydpi="96" />
    <path
       style="fill:#000000;stroke:none;stroke-width:0.065;stroke-linecap:butt;stroke-linejoin:miter;stroke-miterlimit:4;stroke-dasharray:none;stroke-opacity:1"
       d="m 2570.7993,-165.38701 c -3.5805,0.1016 -6.9074,0.454 -10.338,2.5359 -17.3076,4.2554 -26.3675,25.60919 -11.5249,38.52399 -0.7032,-3.9857 -2.4671,-7.5079 -1.4262,-11.9212 4.6247,-0.5113 10.0055,-0.2437 12.6451,-2.78669 1.9986,1.3449 7.4761,0.015 10.6226,-0.2068 33.1372,-3.7558 53.8361,-4.9568 78.7523,-6.2947 v -13.9579 c -33.2488,-1.6796 -58.9028,-3.2189 -78.731,-5.8926 z"
       id="path1080"
       inkscape:connector-curvature="0"
       sodipodi:nodetypes="cccccccccc" />
    <text
       xml:space="preserve"
       style="font-style:normal;font-weight:normal;font-size:66.2316px;line-height:1.25;font-family:sans-serif;fill:#000000;fill-opacity:1;stroke:none;stroke-width:1.65579"
       x="1975.5629"
       y="-245.77036"
       id="text1116"><tspan
         id="tspan1114"
         sodipodi:role="line"
         x="1975.5629"
         y="-245.77036"
         style="stroke-width:1.65579">Smaller body</tspan></text>
    <text
       id="text1120"
       y="-222.22643"
       x="2516.7861"
       style="font-style:normal;font-weight:normal;font-size:51.8981px;line-height:1.25;font-family:sans-serif;fill:#000000;fill-opacity:1;stroke:none;stroke-width:1.29745"
       xml:space="preserve"><tspan
         style="stroke-width:1.29745"
         y="-222.22643"
         x="2516.7861"
         sodipodi:role="line"
         id="tspan1118">Even smaller (currently used)</tspan></text>
  </g>
</svg>
